<svg width="22" height="22" viewBox="0 0 22 22" fill="none" xmlns="http://www.w3.org/2000/svg">
<path d="M11 0C4.92486 0 0 4.92486 0 11C0 17.0751 4.92486 22 11 22C17.0751 22 22 17.0751 22 11C22 4.92486 17.0751 0 11 0ZM16.7174 6.95819L14.7637 16.2852C14.74 16.398 14.6884 16.503 14.6136 16.5907C14.5388 16.6783 14.4431 16.7458 14.3354 16.7868C14.2277 16.8279 14.1114 16.8412 13.9972 16.8256C13.883 16.8099 13.7746 16.7658 13.6819 16.6974L10.8401 14.5979L9.1184 16.2221C9.09586 16.2433 9.06932 16.2599 9.04031 16.2708C9.0113 16.2817 8.98042 16.2867 8.94946 16.2855C8.9185 16.2843 8.88808 16.277 8.85999 16.2639C8.83189 16.2509 8.80668 16.2324 8.78582 16.2094L8.74882 16.1688L9.04797 13.2738L14.4399 8.34737C14.4665 8.32304 14.4831 8.28961 14.4863 8.25366C14.4896 8.21772 14.4792 8.18187 14.4573 8.15318C14.4354 8.1245 14.4035 8.10507 14.368 8.09873C14.3325 8.09238 14.2958 8.09958 14.2654 8.1189L7.36979 12.4832L4.4 11.4858C4.32103 11.4593 4.25221 11.409 4.20297 11.3418C4.15374 11.2746 4.1265 11.1938 4.12499 11.1106C4.12348 11.0273 4.14779 10.9455 4.19456 10.8766C4.24134 10.8077 4.3083 10.7549 4.38625 10.7256L16.0059 6.34838C16.0955 6.31465 16.1925 6.30561 16.2869 6.32222C16.3812 6.33883 16.4693 6.38048 16.542 6.4428C16.6147 6.50512 16.6694 6.58583 16.7002 6.6765C16.7311 6.76716 16.737 6.86445 16.7174 6.95819Z" fill="black"/>
</svg>
