<svg width="22" height="22" viewBox="0 0 22 22" fill="none" xmlns="http://www.w3.org/2000/svg">
<path fill-rule="evenodd" clip-rule="evenodd" d="M11 0C4.92567 0 0 4.92464 0 11C0 15.86 3.15187 19.9833 7.52249 21.4379C8.07218 21.5396 8.27408 21.1991 8.27408 20.9087C8.27408 20.6465 8.26397 19.7798 8.25919 18.8606C5.19897 19.5261 4.55323 17.5628 4.55323 17.5628C4.0528 16.2914 3.33192 15.9533 3.33192 15.9533C2.33379 15.2705 3.40715 15.2846 3.40715 15.2846C4.51162 15.3622 5.09334 16.4183 5.09334 16.4183C6.07441 18.0999 7.66661 17.6137 8.29441 17.3326C8.39316 16.6217 8.6781 16.1363 8.99279 15.8617C6.54951 15.5836 3.98101 14.6403 3.98101 10.4254C3.98101 9.22456 4.41077 8.24324 5.11449 7.47288C5.00029 7.19572 4.62373 6.07699 5.22107 4.56173C5.22107 4.56173 6.14482 4.26627 8.24671 5.68944C9.12421 5.44568 10.0653 5.32345 11.0001 5.31921C11.9348 5.32345 12.8766 5.44568 13.7556 5.68944C15.8552 4.26627 16.7777 4.56173 16.7777 4.56173C17.3764 6.07699 16.9998 7.19572 16.8856 7.47288C17.591 8.24324 18.0177 9.22452 18.0177 10.4254C18.0177 14.6504 15.4444 15.5806 12.9948 15.8529C13.3894 16.1943 13.7409 16.8637 13.7409 17.8899C13.7409 19.3618 13.7283 20.5463 13.7283 20.9087C13.7283 21.2015 13.9262 21.5445 14.4837 21.4365C18.8521 19.9803 22 15.8585 22 11C22 4.92464 17.075 0 11 0Z" fill="black"/>
</svg>
